<mxfile host="app.diagrams.net" modified="2022-08-16T11:39:16.594Z" agent="5.0 (Windows NT 10.0; Win64; x64) AppleWebKit/537.36 (KHTML, like Gecko) Chrome/104.0.0.0 Safari/537.36" etag="Wafj4a8BZwJbct1rFssR" version="20.2.4" type="github">
  <diagram id="xQb7zfs23DKexmSBudAX" name="Page-1">
    <mxGraphModel dx="1027" dy="680" grid="1" gridSize="10" guides="1" tooltips="1" connect="1" arrows="1" fold="1" page="1" pageScale="1" pageWidth="2339" pageHeight="3300" math="0" shadow="0">
      <root>
        <mxCell id="0" />
        <mxCell id="1" parent="0" />
        <mxCell id="wCjMpE5jGRe7-QXXocXw-1" value="" style="rounded=1;whiteSpace=wrap;html=1;" vertex="1" parent="1">
          <mxGeometry x="960" y="470" width="350" height="190" as="geometry" />
        </mxCell>
        <mxCell id="wCjMpE5jGRe7-QXXocXw-14" value="" style="rounded=0;whiteSpace=wrap;html=1;fontSize=22;" vertex="1" parent="1">
          <mxGeometry x="1025" y="720" width="200" height="120" as="geometry" />
        </mxCell>
        <mxCell id="wCjMpE5jGRe7-QXXocXw-17" value="&lt;ul style=&quot;font-size: 15px;&quot;&gt;&lt;li&gt;Decription and advantages&lt;/li&gt;&lt;li&gt;&lt;span style=&quot;background-color: initial;&quot;&gt;About team&lt;/span&gt;&lt;br&gt;&lt;/li&gt;&lt;li&gt;&lt;span style=&quot;background-color: initial;&quot;&gt;&lt;br&gt;&lt;/span&gt;&lt;/li&gt;&lt;/ul&gt;" style="text;strokeColor=none;fillColor=none;html=1;whiteSpace=wrap;verticalAlign=middle;overflow=hidden;fontSize=22;" vertex="1" parent="1">
          <mxGeometry x="960" y="490" width="340" height="160" as="geometry" />
        </mxCell>
        <mxCell id="wCjMpE5jGRe7-QXXocXw-18" value="Main page" style="text;strokeColor=none;fillColor=none;html=1;fontSize=24;fontStyle=1;verticalAlign=middle;align=center;" vertex="1" parent="1">
          <mxGeometry x="1085" y="480" width="100" height="40" as="geometry" />
        </mxCell>
        <mxCell id="wCjMpE5jGRe7-QXXocXw-20" value="" style="rounded=0;whiteSpace=wrap;html=1;fontSize=15;" vertex="1" parent="1">
          <mxGeometry x="1015" y="880" width="240" height="100" as="geometry" />
        </mxCell>
        <mxCell id="wCjMpE5jGRe7-QXXocXw-21" value="Footer" style="text;strokeColor=none;fillColor=none;html=1;fontSize=24;fontStyle=1;verticalAlign=middle;align=center;" vertex="1" parent="1">
          <mxGeometry x="1080" y="880" width="100" height="40" as="geometry" />
        </mxCell>
        <mxCell id="wCjMpE5jGRe7-QXXocXw-22" value="Header" style="text;strokeColor=none;fillColor=none;html=1;fontSize=24;fontStyle=1;verticalAlign=middle;align=center;" vertex="1" parent="1">
          <mxGeometry x="1075" y="720" width="100" height="40" as="geometry" />
        </mxCell>
        <mxCell id="wCjMpE5jGRe7-QXXocXw-25" value="" style="rounded=1;whiteSpace=wrap;html=1;fontSize=15;" vertex="1" parent="1">
          <mxGeometry x="950" y="120" width="340" height="160" as="geometry" />
        </mxCell>
        <mxCell id="wCjMpE5jGRe7-QXXocXw-26" value="Authorization" style="text;strokeColor=none;fillColor=none;html=1;fontSize=24;fontStyle=1;verticalAlign=middle;align=center;" vertex="1" parent="1">
          <mxGeometry x="1070" y="130" width="100" height="40" as="geometry" />
        </mxCell>
      </root>
    </mxGraphModel>
  </diagram>
</mxfile>
